<?xml version="1.0" encoding="UTF-8"?><svg id="Calque_1" xmlns="http://www.w3.org/2000/svg" viewBox="0 0 280.18 27"><defs><style>.cls-1{fill:#35f;}</style></defs><path d="M36.76,22.79c-.58.86-1.3,1.52-2.17,2-.87.48-1.87.71-3,.71-.91,0-1.73-.14-2.47-.43s-1.37-.72-1.89-1.32c-.52-.6-.93-1.36-1.21-2.29-.28-.93-.43-2.04-.43-3.33V7.81h2.97v10.35c0,.94.07,1.72.22,2.34s.37,1.11.67,1.48c.3.37.67.64,1.1.79.43.15.93.22,1.5.22.66,0,1.26-.08,1.78-.23.52-.15.98-.37,1.36-.65.32-.22.6-.49.84-.81.24-.32.44-.66.6-1.04V7.81h2.99v17.37h-2.7l-.18-2.39h0Z"/><polygon points="65.89 7.81 61.2 21.21 57.34 7.81 57.3 7.81 54.29 7.81 54.25 7.81 50.4 21.21 45.71 7.81 42.68 7.81 49.45 25.18 51.71 25.18 55.8 12.48 59.89 25.18 62.15 25.18 68.92 7.81 65.89 7.81"/><path d="M77.59,7.81v14.8h3.23v2.57h-9.67v-2.57h3.47v-12.22h-3.47v-2.58h6.44ZM74.36,2.53c.08-.22.21-.42.38-.58.14-.14.32-.25.54-.33.22-.08.47-.12.75-.12s.52.04.74.12.39.19.53.33c.17.15.3.34.39.56.09.22.13.47.13.74,0,.48-.15.88-.45,1.2s-.74.48-1.33.48-1.05-.16-1.34-.48c-.29-.32-.44-.72-.44-1.2,0-.26.04-.5.12-.72h0Z"/><path d="M93.67,19.62c-.14-.28-.37-.54-.71-.78s-.77-.45-1.32-.65c-.55-.2-1.23-.38-2.04-.54-1-.2-1.9-.45-2.72-.74s-1.52-.64-2.09-1.04c-.59-.4-1.04-.86-1.36-1.4-.32-.54-.48-1.17-.48-1.89s.17-1.37.5-1.98c.33-.62.8-1.15,1.4-1.61.6-.46,1.31-.82,2.14-1.09.83-.27,1.74-.4,2.74-.4,1.07,0,2.03.14,2.89.42.86.28,1.58.66,2.18,1.16.6.49,1.06,1.07,1.39,1.73.33.66.49,1.37.49,2.13h-2.97c0-.37-.1-.74-.29-1.1-.19-.36-.46-.68-.8-.96-.34-.28-.76-.5-1.24-.67s-1.04-.26-1.65-.26-1.19.07-1.66.21c-.48.14-.87.33-1.18.56-.32.24-.56.51-.72.82-.16.31-.24.63-.24.96s.06.65.19.92.35.51.67.72c.31.21.73.41,1.26.58s1.2.34,2.01.5c1.07.22,2.03.48,2.87.78s1.56.64,2.14,1.05c.58.42,1.02.9,1.32,1.44.31.55.46,1.18.46,1.89,0,.77-.17,1.47-.52,2.1-.35.63-.83,1.17-1.45,1.62-.62.45-1.36.8-2.23,1.04s-1.81.37-2.84.37c-1.18,0-2.23-.16-3.15-.47-.92-.32-1.7-.74-2.33-1.26-.64-.51-1.13-1.11-1.47-1.8-.34-.68-.51-1.4-.51-2.14h2.97c.04.61.21,1.12.49,1.54.28.42.64.75,1.07,1.01.42.26.88.44,1.4.55s1.02.16,1.53.16c.79,0,1.48-.09,2.07-.28.59-.19,1.05-.45,1.38-.78.2-.2.36-.43.47-.67.11-.25.16-.51.16-.79,0-.35-.07-.67-.21-.96h0Z"/><path d="M104.01,24.87c-1.02-.42-1.9-1-2.62-1.75-.73-.75-1.3-1.64-1.7-2.66-.41-1.03-.61-2.15-.61-3.36v-.67c0-1.4.22-2.66.67-3.76.45-1.11,1.05-2.05,1.8-2.82.74-.76,1.58-1.34,2.53-1.75.95-.41,1.92-.61,2.91-.61,1.25,0,2.35.22,3.28.65.94.43,1.71,1.03,2.34,1.79.62.77,1.08,1.68,1.39,2.71.3,1.04.46,2.16.46,3.37v1.33h-12.41v.11c.07.85.24,1.59.51,2.23s.62,1.21,1.08,1.7c.47.52,1.04.94,1.7,1.24.66.3,1.4.45,2.2.45,1.06,0,2-.21,2.83-.64.82-.43,1.51-1,2.05-1.7l1.81,1.41c-.58.88-1.44,1.66-2.59,2.34-1.15.68-2.57,1.02-4.26,1.02-1.22,0-2.34-.21-3.36-.63h0ZM105.29,10.26c-.54.22-1.02.54-1.44.96-.43.43-.79.95-1.08,1.57s-.5,1.32-.62,2.13h9.34v-.14c0-.54-.1-1.11-.31-1.73s-.49-1.15-.85-1.6-.82-.81-1.37-1.09c-.55-.28-1.21-.42-1.97-.42-.6,0-1.17.11-1.7.33h0Z"/><polygon points="16.39 1.5 16.39 4.11 18.3 4.11 18.3 22.57 16.39 22.57 16.39 25.18 21.28 25.18 21.28 1.5 16.39 1.5"/><polygon points="0 1.5 0 25.18 4.89 25.18 4.89 22.57 2.98 22.57 2.98 4.11 4.89 4.11 4.89 1.5 0 1.5"/><rect x="5.43" y="12.15" width="10.41" height="2.43"/><path class="cls-1" d="M135.24,9.06v-1.96h4.7v1.96h-4.7ZM135.24,25.31V7.44h2.29v17.86h-2.29ZM135.24,25.31v-1.94h4.7v1.94h-4.7Z"/><path class="cls-1" d="M147.86,22.63V7.78h2.45v14.85h-2.45ZM149.17,16.11v-2.07h9.47v2.07h-9.47ZM157.67,22.63V7.78h2.45v14.85h-2.45Z"/><path class="cls-1" d="M168.79,22.92c-.93,0-1.75-.14-2.47-.42-.72-.28-1.33-.67-1.82-1.19-.5-.52-.87-1.14-1.12-1.87-.26-.73-.38-1.55-.38-2.46s.13-1.76.38-2.53c.25-.77.62-1.44,1.09-2.01.47-.57,1.06-1.01,1.75-1.33s1.49-.47,2.37-.47c.82,0,1.56.14,2.22.41s1.2.68,1.65,1.23c.45.55.79,1.23,1.01,2.05.23.82.31,1.77.25,2.87l-9.16.07v-1.53l7.72-.07-.85.95c.09-.9.01-1.64-.23-2.23-.24-.58-.58-1.02-1.03-1.31-.45-.28-.97-.43-1.55-.43-.66,0-1.23.17-1.72.51s-.87.83-1.14,1.47c-.27.65-.41,1.42-.41,2.32,0,1.35.3,2.37.9,3.05.6.68,1.45,1.02,2.56,1.02.46,0,.86-.06,1.19-.17.33-.11.61-.26.83-.45.22-.19.41-.41.55-.68.14-.26.26-.54.35-.82l2.14.49c-.13.56-.34,1.05-.62,1.47-.28.43-.63.8-1.05,1.1-.42.31-.91.54-1.47.71s-1.21.25-1.95.25Z"/><path class="cls-1" d="M176.46,22.63V6.77h2.41v15.86h-2.41Z"/><path class="cls-1" d="M182.24,26.32v-15.39h2.12l-.07,3.08.36.02c.17-.7.41-1.31.74-1.81.33-.5.75-.89,1.27-1.17.52-.28,1.14-.42,1.86-.42,1.05,0,1.94.26,2.67.79.73.53,1.28,1.25,1.64,2.18.37.93.55,1.99.55,3.19s-.18,2.22-.53,3.14c-.35.92-.88,1.65-1.59,2.18s-1.57.8-2.59.8c-.79,0-1.46-.16-1.98-.48-.53-.32-.95-.75-1.28-1.28-.33-.53-.58-1.12-.77-1.77h-.4c.09.41.16.82.22,1.25.06.43.11.85.16,1.27s.07.82.07,1.19v3.22h-2.45ZM187.96,20.88c.62,0,1.14-.18,1.56-.53.43-.35.75-.84.98-1.45.22-.62.34-1.32.34-2.12s-.12-1.54-.35-2.14c-.23-.6-.57-1.07-1-1.41-.44-.34-.95-.51-1.55-.51-.53,0-.99.12-1.39.36-.41.24-.75.55-1.02.93-.28.38-.49.8-.63,1.26-.14.46-.21.9-.21,1.34v.34c0,.3.04.62.14.97.09.34.22.69.39,1.04.17.34.39.66.65.96.26.29.57.53.92.7.35.17.75.26,1.18.26Z"/><path class="cls-1" d="M206.81,22.92c-1,0-1.87-.16-2.6-.47-.73-.32-1.32-.75-1.79-1.31-.46-.55-.81-1.19-1.04-1.91-.22-.72-.34-1.49-.34-2.32,0-.88.12-1.71.36-2.46.24-.76.6-1.42,1.07-2,.47-.58,1.06-1.02,1.77-1.34.7-.31,1.52-.47,2.45-.47s1.71.15,2.4.46c.68.31,1.24.74,1.68,1.31.43.56.72,1.22.86,1.97l-2.29.7c-.04-.44-.17-.84-.38-1.21s-.51-.67-.9-.89c-.39-.22-.86-.33-1.42-.33-.53,0-.98.1-1.37.3-.39.2-.71.49-.97.88-.26.38-.45.83-.57,1.34-.13.51-.19,1.07-.19,1.69,0,.84.12,1.57.35,2.19.23.62.6,1.1,1.09,1.44.5.34,1.12.51,1.87.51.63,0,1.15-.11,1.55-.34.41-.22.72-.53.95-.91.22-.38.37-.83.45-1.34l2.18.52c-.09.62-.27,1.17-.54,1.68-.27.5-.62.93-1.06,1.27-.43.34-.95.61-1.54.79s-1.26.27-2.01.27Z"/><path class="cls-1" d="M219.32,22.92c-.93,0-1.75-.14-2.47-.42-.72-.28-1.33-.67-1.82-1.19-.5-.52-.87-1.14-1.12-1.87-.26-.73-.38-1.55-.38-2.46s.13-1.76.38-2.53c.25-.77.62-1.44,1.09-2.01.47-.57,1.06-1.01,1.75-1.33s1.49-.47,2.37-.47c.82,0,1.56.14,2.22.41s1.2.68,1.65,1.23c.45.55.79,1.23,1.01,2.05.23.82.31,1.77.25,2.87l-9.16.07v-1.53l7.72-.07-.85.95c.09-.9.01-1.64-.23-2.23-.24-.58-.58-1.02-1.03-1.31-.45-.28-.97-.43-1.55-.43-.66,0-1.23.17-1.72.51s-.87.83-1.14,1.47c-.27.65-.41,1.42-.41,2.32,0,1.35.3,2.37.9,3.05.6.68,1.45,1.02,2.56,1.02.46,0,.86-.06,1.19-.17.33-.11.61-.26.83-.45.22-.19.41-.41.55-.68.14-.26.26-.54.35-.82l2.14.49c-.13.56-.34,1.05-.62,1.47-.28.43-.63.8-1.05,1.1-.42.31-.91.54-1.47.71s-1.21.25-1.95.25Z"/><path class="cls-1" d="M226.99,22.63v-11.7h2.12l-.13,3.65h.38c.21-.9.49-1.64.84-2.22.35-.58.8-1.01,1.35-1.29.55-.28,1.19-.43,1.92-.43,1.3,0,2.3.47,2.98,1.4.68.93,1.02,2.35,1.02,4.25v6.34h-2.48v-6.1c0-1.3-.2-2.26-.58-2.87s-.97-.91-1.75-.91c-.67,0-1.25.21-1.72.64-.47.43-.84.99-1.09,1.68-.25.69-.4,1.44-.43,2.25v5.31h-2.43Z"/><path class="cls-1" d="M244.52,22.88c-1.16,0-2.01-.31-2.58-.94s-.84-1.6-.84-2.9v-6.1h-1.73l.04-2h1.12c.39,0,.68-.06.88-.19.2-.13.32-.36.36-.69l.22-1.73h1.46v2.61h3.22v2.05h-3.22v5.98c0,.58.13,1,.41,1.26.27.25.67.38,1.19.38.28,0,.57-.03.87-.1.29-.07.57-.2.84-.39v2.36c-.45.15-.86.25-1.24.31-.38.06-.71.09-1.01.09Z"/><path class="cls-1" d="M254.24,22.92c-.93,0-1.75-.14-2.47-.42-.72-.28-1.33-.67-1.82-1.19-.5-.52-.87-1.14-1.12-1.87-.26-.73-.38-1.55-.38-2.46s.13-1.76.38-2.53c.25-.77.62-1.44,1.09-2.01.47-.57,1.06-1.01,1.75-1.33s1.49-.47,2.37-.47c.82,0,1.56.14,2.22.41s1.2.68,1.65,1.23c.45.55.79,1.23,1.01,2.05.23.82.31,1.77.25,2.87l-9.16.07v-1.53l7.72-.07-.85.95c.09-.9.01-1.64-.23-2.23-.24-.58-.58-1.02-1.03-1.31-.45-.28-.97-.43-1.55-.43-.66,0-1.23.17-1.72.51s-.87.83-1.14,1.47c-.27.65-.41,1.42-.41,2.32,0,1.35.3,2.37.9,3.05.6.68,1.45,1.02,2.56,1.02.46,0,.86-.06,1.19-.17.33-.11.61-.26.83-.45.22-.19.41-.41.55-.68.14-.26.26-.54.35-.82l2.14.49c-.13.56-.34,1.05-.62,1.47-.28.43-.63.8-1.05,1.1-.42.31-.91.54-1.47.71s-1.21.25-1.95.25Z"/><path class="cls-1" d="M261.91,22.63v-11.7h2.12l-.11,4.05h.38c.13-.92.34-1.69.63-2.34.29-.64.68-1.14,1.17-1.47.5-.34,1.11-.51,1.85-.51.15,0,.31,0,.5.02.18.01.38.06.61.13l-.11,2.56c-.22-.09-.46-.15-.7-.19-.24-.04-.46-.06-.65-.06-.6,0-1.11.17-1.53.51s-.77.8-1.05,1.39c-.28.59-.49,1.28-.64,2.06v5.54h-2.45Z"/><path class="cls-1" d="M280,9.06h-4.7v-1.96h4.7v1.96ZM280,25.31h-4.7v-1.94h4.7v1.94ZM280,25.31h-2.32V7.44h2.32v17.86Z"/></svg>