<svg xmlns="http://www.w3.org/2000/svg" viewBox="0 0 411 155"><defs><style>.cls-1{fill:#52e899;}.cls-2{fill:#fff;}</style></defs><title>ODS</title><g id="Calque_4" data-name="Calque 4"><path class="cls-1" d="M345.11,121.25l-1.42,7.44h-6.52l6.84-32h8.81l6.43,32h-7.39l-1.33-7.44Zm5-5-.64-3.72c-.6-3.44-1.19-6.56-1.47-9.13-.32,2.52-.92,5.69-1.56,9.09l-.73,3.76Z"/><path class="cls-1" d="M360.72,96.69h8.63c6.75,0,9.78,3.17,9.78,10,0,6.43-3.3,10.19-9.55,10.19h-2v11.84h-6.88Zm8.4,15.38c2.52,0,3.35-1.61,3.35-5.37,0-3.53-.78-5.09-3.35-5.09h-1.65v10.46Z"/><path class="cls-1" d="M381.41,96.69h6.88v32h-6.88Z"/><polygon class="cls-2" points="70.51 82.04 86.34 84.59 86.33 68.05 69.77 65.7 70.51 82.04"/><polygon class="cls-2" points="71.45 102.61 86.34 105.37 86.34 90.79 70.79 88.17 71.45 102.61"/><polygon class="cls-2" points="46.95 55.75 62.89 57.87 61.73 39.34 45.04 37.51 46.95 55.75"/><polygon class="cls-2" points="25.64 52.92 40.74 54.93 38.55 36.79 22.78 35.05 25.64 52.92"/><polygon class="cls-2" points="49.34 78.63 64.35 81.05 63.33 64.8 47.66 62.58 49.34 78.63"/><polygon class="cls-2" points="99.07 56.22 91.4 60.53 91.66 41.68 99.68 37.99 99.07 56.22"/><polygon class="cls-2" points="98.3 79.08 91.09 84.06 91.31 67.57 98.84 63.05 98.3 79.08"/><polygon class="cls-2" points="108.78 50.77 101.95 54.6 102.7 36.61 109.8 33.35 108.78 50.77"/><polygon class="cls-2" points="69.46 58.73 86.33 60.98 86.33 42.05 68.61 40.1 69.46 58.73"/><polygon class="cls-2" points="79.13 32.09 96.3 33.78 88.06 37.29 70.3 35.44 79.13 32.09"/><polygon class="cls-2" points="90.28 27.85 106.66 29.36 99.39 32.47 82.46 30.82 90.28 27.85"/><polygon class="cls-2" points="100.23 24.07 115.87 25.44 109.4 28.2 93.24 26.73 100.23 24.07"/><polygon class="cls-2" points="56.25 29.82 72.46 31.42 63.4 34.72 46.65 32.98 56.25 29.82"/><polygon class="cls-2" points="68.33 25.81 83.85 27.25 75.81 30.18 59.8 28.62 68.33 25.81"/><polygon class="cls-2" points="34.59 27.67 49.94 29.19 40.15 32.3 24.34 30.65 34.59 27.67"/><path class="cls-2" d="M121.93,63.83c0-15.61,4.81-21.6,13.62-21.6,8.33,0,13.56,6.57,13.56,20.6,0,15.61-4.81,21.72-13.56,21.72C127.33,84.55,121.93,77.86,121.93,63.83Zm17.84-.59c0-11.68-1.23-14.5-4.34-14.5-2.88,0-4.17,3.35-4.17,14.5,0,12.09,1.23,14.79,4.34,14.79S139.77,75.75,139.77,63.25Z"/><path class="cls-2" d="M151.51,53.74l7.22-.88a9.22,9.22,0,0,1,.47,2.52,7.41,7.41,0,0,1,5.58-2.58c6,0,9,4.11,9,15.55,0,12.09-3.46,16.2-10.1,16.2a5.91,5.91,0,0,1-3.81-1.23V94.06l-8.33,1Zm13.56,15.08c0-8-.88-9.63-2.88-9.63a2.94,2.94,0,0,0-2.35,1.23V77.86a2.76,2.76,0,0,0,2.11.94C164.19,78.8,165.07,77.51,165.07,68.82Z"/><path class="cls-2" d="M175.28,68.76c0-10.27,4.05-16,11-16,7.16,0,10.33,4.4,10.33,15.08v3.58H183.44c.18,5.11,1.53,6.81,4.58,6.81a8.28,8.28,0,0,0,5.58-2.47l3,5.52a14.13,14.13,0,0,1-9.39,3.23C179.15,84.55,175.28,79.56,175.28,68.76Zm13.56-2.47c0-6.28-.59-7.75-2.47-7.75-2.05,0-2.82,1.64-2.93,7.75Z"/><path class="cls-2" d="M199,53.74l7.22-.88a8.83,8.83,0,0,1,.41,3,8.11,8.11,0,0,1,6.57-3.05c4.4,0,7.16,2.41,7.16,7.51V83.85H212V62.19c0-2.17-.53-2.88-2.05-2.88a3.75,3.75,0,0,0-2.64,1.23v23.3H199Z"/><path class="cls-2" d="M223.7,42.94h10.74c10.33,0,14.73,6.16,14.73,19.9,0,14-4.7,21-14.38,21H223.7ZM234.2,77.22c4.46,0,5.58-2.47,5.58-14.5,0-10.74-1.06-13.21-5.75-13.21H232.5v27.7Z"/><path class="cls-2" d="M263.37,81.79a5.57,5.57,0,0,1-5.22,2.82c-4.52,0-7.92-2.93-7.92-8.92,0-7.16,3.7-9.57,10.09-9.57a16.39,16.39,0,0,1,2.47.18V62.37c0-2.23-1.23-2.93-3.05-2.93a10.7,10.7,0,0,0-6,2L251,55.62a19.45,19.45,0,0,1,10.21-2.82c6.57,0,9.74,2.7,9.74,8.33V77.51a11,11,0,0,0,1.06,5.28l-7.16,1.94A4.18,4.18,0,0,1,263.37,81.79Zm-.59-3.93V70.47a7.68,7.68,0,0,0-1.35-.12c-2.47,0-3.58,1-3.58,4.81,0,3.41.88,4.4,2.58,4.4A2.5,2.5,0,0,0,262.79,77.86Z"/><path class="cls-2" d="M274.7,77.39V59.26h-2.05V53.56H275a62.89,62.89,0,0,1,.29-7.57L283,44.82v8.75h4.11L287,59.26h-4V76c0,1.88.35,2.41,1.88,2.41A4.9,4.9,0,0,0,287,78l.65,5.58A13,13,0,0,1,282,84.61C277.11,84.61,274.7,82.38,274.7,77.39Z"/><path class="cls-2" d="M302.11,81.79a5.57,5.57,0,0,1-5.22,2.82c-4.52,0-7.92-2.93-7.92-8.92,0-7.16,3.7-9.57,10.09-9.57a16.39,16.39,0,0,1,2.47.18V62.37c0-2.23-1.23-2.93-3.05-2.93a10.7,10.7,0,0,0-6,2l-2.7-5.81A19.45,19.45,0,0,1,300,52.8c6.57,0,9.74,2.7,9.74,8.33V77.51a11,11,0,0,0,1.06,5.28l-7.16,1.94A4.18,4.18,0,0,1,302.11,81.79Zm-.59-3.93V70.47a7.67,7.67,0,0,0-1.35-.12c-2.47,0-3.58,1-3.58,4.81,0,3.41.88,4.4,2.58,4.4A2.5,2.5,0,0,0,301.52,77.86Z"/><path class="cls-2" d="M311.15,81.56,314,75a12.42,12.42,0,0,0,7,2.7c3.11,0,4.87-1.88,4.87-5.52,0-3-1.11-4.34-4.28-5.28l-1.06-.29c-5.17-1.53-8.28-4.23-8.28-12s4.17-12.38,11.86-12.38a16.36,16.36,0,0,1,10,3l-3.35,6.4a9,9,0,0,0-6-2.52c-2.7,0-4.05,1.88-4.05,4.64s.76,4.11,3.7,5l1.06.29c6.16,1.76,9.1,5,9.1,11.8,0,8.75-4.29,13.68-12.74,13.68C317.43,84.55,313.2,83.2,311.15,81.56Z"/><path class="cls-2" d="M335.85,68.82c0-10.74,4.29-16,11.56-16s11.33,5,11.33,15.32c0,11.33-3.93,16.43-11.5,16.43C339.9,84.55,335.85,79.5,335.85,68.82Zm14.26-.59c0-8-.76-9.63-2.76-9.63s-2.82,2.11-2.82,10c0,8.28.76,10.15,2.76,10.15S350.12,76.51,350.12,68.24Z"/><path class="cls-2" d="M375.82,77.39V59.26h-5.63V83.85h-8.33V59.26h-2.11V53.56h2V48.75c0-5.58,2.29-7.92,7.75-7.92a13.42,13.42,0,0,1,5.4,1l-1.17,5.75a3.21,3.21,0,0,0-1.7-.47c-1.35,0-2,.76-2,2.47v4h6.1a63.13,63.13,0,0,1,.29-7.57l7.75-1.17v8.75h4.11l-.12,5.69h-4V76c0,1.88.35,2.41,1.88,2.41a4.9,4.9,0,0,0,2.11-.47l.65,5.58a13,13,0,0,1-5.63,1.06C378.23,84.61,375.82,82.38,375.82,77.39Z"/><path class="cls-1" d="M301.71,114a1.49,1.49,0,0,1,1.47-1.47l2.38,0a3.91,3.91,0,0,1,.29-.67l-1.63-1.63a2.12,2.12,0,0,1-.44-.57,1.18,1.18,0,0,1,.23-1.39l3.09-3.09a1.3,1.3,0,0,1,.92-.38,1.63,1.63,0,0,1,1.13.5l1.69,1.69.56-.24,0-2.43a1.45,1.45,0,0,1,1.45-1.45h4.37a1.49,1.49,0,0,1,.48.08V94.19a.91.91,0,0,0-.91-.91H281.07a.91.91,0,0,0-.91.91V118a.91.91,0,0,0,.91.91h20.7a1.46,1.46,0,0,1-.08-.46Zm2.56-12.87h-11V99.65h11ZM289,103.39h12.21v1.49H289Zm-2.32,12.71h-4.2v-1.49h4.2Zm0-3.74h-4.2v-1.49h4.2Zm0-3.74h-4.2v-1.49h4.2Zm0-3.75h-4.2v-1.49h4.2Zm0-3.74h-4.2V99.65h4.2Zm6.52,15H289v-1.49h4.2Zm0-3.74H289v-1.49h4.2Zm4.11-3.74h-4.2v-1.49h4.2Zm4.53,3.74h-4.2v-1.49h4.2Z"/><path class="cls-1" d="M321.51,105.8,319.36,108a11,11,0,0,0-1.61-.65l0-3a.51.51,0,0,0-.51-.51h-4.37a.52.52,0,0,0-.52.52l0,3.08a12.62,12.62,0,0,0-1.68.71l-2.16-2.16c-.2-.2-.53-.32-.73-.11l-3.09,3.09c-.2.2,0,.44.21.64l2.16,2.16a4.24,4.24,0,0,0-.76,1.73l-3.09,0a.55.55,0,0,0-.54.54v4.38a.52.52,0,0,0,.52.53l3,0a11.06,11.06,0,0,0,.64,1.62l-2.16,2.16c-.2.2,0,.44.25.64L308,126.4c.21.21.44.45.64.25l2.16-2.16a11,11,0,0,0,1.62.65l0,3a.51.51,0,0,0,.51.51h4.37a.52.52,0,0,0,.52-.53l.08-3.13a4.2,4.2,0,0,0,1.73-.76l2.16,2.16c.2.2.43.41.64.21l3.09-3.09c.2-.2.09-.53-.11-.73l-2.16-2.16a12.17,12.17,0,0,0,.71-1.68H327a.54.54,0,0,0,.53-.53V114a.52.52,0,0,0-.52-.53l-3,0a11,11,0,0,0-.65-1.62l2.16-2.16c.2-.2.05-.53-.15-.74L322.25,106C322,105.75,321.72,105.6,321.51,105.8Zm-3.21,13.81a4.54,4.54,0,1,1,0-6.43A4.54,4.54,0,0,1,318.3,119.61Z"/></g></svg>